<svg xmlns="http://www.w3.org/2000/svg" xmlns:xlink="http://www.w3.org/1999/xlink" width="794" zoomAndPan="magnify" viewBox="0 0 595.5 842.249979" height="1123" preserveAspectRatio="xMidYMid meet" version="1.0"><defs><clipPath id="id1"><path d="M 9.011719 518 L 586.480469 518 L 586.480469 735.058594 L 9.011719 735.058594 Z M 9.011719 518 " clip-rule="nonzero"/></clipPath><clipPath id="id2"><path d="M 243 565 L 352 565 L 352 735.058594 L 243 735.058594 Z M 243 565 " clip-rule="nonzero"/></clipPath><clipPath id="id3"><path d="M 9.011719 519 L 586.480469 519 L 586.480469 735.058594 L 9.011719 735.058594 Z M 9.011719 519 " clip-rule="nonzero"/></clipPath><clipPath id="id4"><path d="M 117 49.59375 L 479 49.59375 L 479 357 L 117 357 Z M 117 49.59375 " clip-rule="nonzero"/></clipPath></defs><path fill="rgb(87.449646%, 92.158508%, 99.609375%)" d="M 18.363281 726.039062 C 23.105469 615.824219 114.25 527.613281 225.597656 527.613281 L 369.894531 527.613281 C 481.242188 527.613281 572.402344 615.824219 577.128906 726.039062 Z M 18.363281 726.039062 " fill-opacity="1" fill-rule="nonzero"/><g clip-path="url(#id1)"><path fill="rgb(100%, 79.998779%, 8.628845%)" d="M 369.894531 536.632812 C 473.234375 536.632812 558.351562 616.023438 567.496094 717.019531 L 27.996094 717.019531 C 37.140625 616.023438 122.257812 536.632812 225.597656 536.632812 L 369.894531 536.632812 M 369.894531 518.59375 L 225.597656 518.59375 C 106.0625 518.59375 9.144531 615.515625 9.144531 735.058594 L 586.347656 735.058594 C 586.347656 615.515625 489.429688 518.59375 369.894531 518.59375 Z M 369.894531 518.59375 " fill-opacity="1" fill-rule="nonzero"/></g><path fill="rgb(95.689392%, 89.408875%, 81.959534%)" d="M 216.578125 533.367188 L 216.578125 437.421875 L 378.914062 437.421875 L 378.914062 533.367188 L 297.746094 597.296875 Z M 216.578125 533.367188 " fill-opacity="1" fill-rule="nonzero"/><path fill="rgb(100%, 79.998779%, 8.628845%)" d="M 369.894531 446.441406 L 369.894531 529.003906 L 297.746094 585.84375 L 225.597656 529.003906 L 225.597656 446.441406 L 369.894531 446.441406 M 387.933594 428.402344 L 207.558594 428.402344 L 207.558594 537.753906 L 297.746094 608.789062 L 387.933594 537.753906 Z M 387.933594 428.402344 " fill-opacity="1" fill-rule="nonzero"/><g clip-path="url(#id2)"><path fill="rgb(100%, 79.998779%, 8.628845%)" d="M 344.660156 565.839844 L 297.746094 578.210938 L 250.867188 565.910156 L 279.707031 626.828125 L 243.632812 735.058594 L 351.859375 735.058594 L 315.785156 626.828125 Z M 344.660156 565.839844 " fill-opacity="1" fill-rule="nonzero"/></g><path fill="rgb(0%, 29.019165%, 67.83905%)" d="M 302.382812 726.039062 L 396.953125 593.636719 L 396.953125 529.527344 C 495.886719 542.496094 572.746094 626.230469 577.128906 726.039062 Z M 18.363281 726.039062 C 22.746094 626.230469 99.605469 542.515625 198.539062 529.527344 L 198.539062 593.636719 L 293.109375 726.039062 Z M 18.363281 726.039062 " fill-opacity="1" fill-rule="nonzero"/><g clip-path="url(#id3)"><path fill="rgb(100%, 79.998779%, 8.628845%)" d="M 405.972656 540.097656 C 492.570312 556.152344 559.363281 629.191406 567.480469 717.019531 L 319.914062 717.019531 L 402.617188 601.230469 L 405.972656 596.523438 L 405.972656 540.097656 M 189.519531 540.097656 L 189.519531 596.523438 L 192.875 601.230469 L 275.578125 717.019531 L 28.011719 717.019531 C 36.128906 629.171875 102.921875 556.132812 189.519531 540.097656 M 387.933594 519.496094 L 387.933594 590.75 L 297.746094 717.019531 L 207.558594 590.75 L 207.558594 519.496094 C 96.484375 528.695312 9.144531 621.59375 9.144531 735.058594 L 586.347656 735.058594 C 586.347656 621.59375 499.007812 528.695312 387.933594 519.496094 Z M 387.933594 519.496094 " fill-opacity="1" fill-rule="nonzero"/></g><path fill="rgb(87.449646%, 92.158508%, 99.609375%)" d="M 426.589844 378.148438 C 403.140625 378.148438 384.089844 359.0625 384.089844 335.628906 C 384.089844 312.199219 403.15625 293.113281 426.589844 293.113281 C 461.996094 293.113281 469.101562 302.816406 469.101562 318.457031 C 469.101562 343.964844 448.089844 378.148438 426.589844 378.148438 Z M 168.90625 378.148438 C 147.402344 378.148438 126.390625 343.964844 126.390625 318.441406 C 126.390625 302.800781 133.515625 293.09375 168.90625 293.09375 C 192.351562 293.09375 211.402344 312.164062 211.402344 335.613281 C 211.402344 359.0625 192.351562 378.148438 168.90625 378.148438 Z M 168.90625 378.148438 " fill-opacity="1" fill-rule="nonzero"/><path fill="rgb(100%, 79.998779%, 8.628845%)" d="M 426.589844 302.132812 C 460.082031 302.132812 460.082031 310.808594 460.082031 318.457031 C 460.082031 340.71875 441.304688 369.144531 426.589844 369.144531 C 408.117188 369.144531 393.09375 354.121094 393.09375 335.648438 C 393.09375 317.160156 408.117188 302.132812 426.589844 302.132812 M 168.90625 302.132812 C 187.375 302.132812 202.398438 317.160156 202.398438 335.628906 C 202.398438 354.101562 187.375 369.128906 168.90625 369.128906 C 154.1875 369.128906 135.410156 340.71875 135.410156 318.441406 C 135.410156 310.808594 135.410156 302.132812 168.90625 302.132812 M 426.589844 284.09375 C 398.125 284.09375 375.054688 307.164062 375.054688 335.628906 C 375.054688 364.09375 398.125 387.167969 426.589844 387.167969 C 455.050781 387.167969 478.121094 346.90625 478.121094 318.441406 C 478.121094 289.992188 455.050781 284.09375 426.589844 284.09375 Z M 168.90625 284.09375 C 140.441406 284.09375 117.371094 289.992188 117.371094 318.457031 C 117.371094 346.921875 140.441406 387.183594 168.90625 387.183594 C 197.367188 387.183594 220.4375 364.113281 220.4375 335.648438 C 220.4375 307.183594 197.367188 284.09375 168.90625 284.09375 Z M 168.90625 284.09375 " fill-opacity="1" fill-rule="nonzero"/><path fill="rgb(95.689392%, 89.408875%, 81.959534%)" d="M 297.746094 509.574219 C 286.851562 509.574219 276.605469 505.644531 268.128906 498.210938 L 266.488281 496.769531 L 264.394531 496.226562 C 204.382812 481.003906 162.464844 427.140625 162.464844 365.269531 L 162.464844 197.546875 C 162.464844 164.589844 189.269531 137.785156 222.207031 137.785156 L 373.269531 137.785156 C 406.207031 137.785156 433.027344 164.589844 433.027344 197.546875 L 433.027344 365.269531 C 433.027344 427.140625 391.109375 481.003906 331.097656 496.226562 L 329.003906 496.769531 L 327.363281 498.210938 C 318.886719 505.644531 308.640625 509.574219 297.746094 509.574219 Z M 297.746094 509.574219 " fill-opacity="1" fill-rule="nonzero"/><path fill="rgb(100%, 79.998779%, 8.628845%)" d="M 373.269531 146.800781 C 401.246094 146.800781 424.007812 169.566406 424.007812 197.546875 L 424.007812 365.269531 C 424.007812 423.007812 384.886719 473.265625 328.859375 487.496094 L 324.65625 488.5625 L 321.394531 491.429688 C 316.648438 495.597656 308.714844 500.558594 297.746094 500.558594 C 286.78125 500.558594 278.84375 495.597656 274.097656 491.429688 L 270.835938 488.5625 L 266.632812 487.496094 C 210.605469 473.265625 171.484375 423.007812 171.484375 365.269531 L 171.484375 197.546875 C 171.484375 169.566406 194.246094 146.800781 222.222656 146.800781 L 373.269531 146.800781 M 373.269531 128.765625 L 222.207031 128.765625 C 184.234375 128.765625 153.445312 159.554688 153.445312 197.546875 L 153.445312 365.269531 C 153.445312 432.679688 199.730469 489.121094 262.195312 504.976562 C 271.71875 513.347656 284.074219 518.59375 297.746094 518.59375 C 311.417969 518.59375 323.773438 513.347656 333.296875 504.976562 C 395.761719 489.121094 442.046875 432.679688 442.046875 365.269531 L 442.046875 197.546875 C 442.046875 159.554688 411.257812 128.765625 373.269531 128.765625 Z M 373.269531 128.765625 " fill-opacity="1" fill-rule="nonzero"/><path fill="rgb(0%, 0%, 0%)" d="M 433.027344 347.230469 L 433.027344 284.09375 C 433.027344 218.507812 378.320312 183.402344 375.976562 181.941406 L 368.796875 177.433594 L 363.835938 184.339844 C 362.300781 186.46875 325.613281 236.417969 246.339844 236.417969 C 225.597656 236.417969 162.464844 236.417969 162.464844 302.132812 L 162.464844 347.230469 L 159.238281 347.230469 C 151.371094 329.515625 126.390625 269.085938 126.390625 217.566406 C 126.390625 122.488281 191.632812 58.613281 288.726562 58.613281 C 357.972656 58.613281 378.769531 105.242188 379.617188 107.226562 L 381.980469 112.691406 L 387.933594 112.726562 C 418.074219 112.726562 469.101562 133.6875 469.101562 212.210938 C 469.101562 259.527344 443.722656 327.53125 435.949219 347.230469 Z M 433.027344 347.230469 " fill-opacity="1" fill-rule="nonzero"/><g clip-path="url(#id4)"><path fill="rgb(100%, 79.998779%, 8.628845%)" d="M 288.726562 67.632812 C 351.550781 67.632812 370.582031 109.066406 371.285156 110.652344 L 375.921875 121.746094 L 387.933594 121.746094 C 421.210938 121.746094 460.082031 145.433594 460.082031 212.210938 C 460.082031 239.917969 450.9375 275.308594 442.046875 303.179688 L 442.046875 284.09375 C 442.046875 213.582031 383.28125 175.878906 380.773438 174.292969 L 366.324219 165.21875 L 356.457031 179.144531 C 356.117188 179.632812 321.449219 227.382812 246.339844 227.382812 C 184.707031 227.398438 153.445312 252.542969 153.445312 302.132812 L 153.445312 307.796875 C 144.589844 282.144531 135.410156 248.179688 135.410156 217.550781 C 135.410156 127.878906 197.023438 67.632812 288.726562 67.632812 M 288.726562 49.59375 C 183.765625 49.59375 117.371094 121.40625 117.371094 217.550781 C 117.371094 281.242188 153.445312 356.25 153.445312 356.25 L 171.484375 356.25 C 171.484375 356.25 171.484375 319.648438 171.484375 302.132812 C 171.484375 254.003906 207.992188 245.4375 246.339844 245.4375 C 331.65625 245.4375 371.195312 189.570312 371.195312 189.570312 C 371.195312 189.570312 424.007812 222.746094 424.007812 284.09375 C 424.007812 303.378906 424.007812 356.25 424.007812 356.25 L 442.046875 356.25 C 442.046875 356.25 478.121094 270.242188 478.121094 212.210938 C 478.121094 130.730469 426.226562 103.707031 387.933594 103.707031 C 387.933594 103.707031 365.332031 49.59375 288.726562 49.59375 Z M 288.726562 49.59375 " fill-opacity="1" fill-rule="nonzero"/></g></svg>